<?xml version="1.0" encoding="UTF-8"?>
<svg version="1.1" viewBox="0 0 1600 448" width="1280" height="1280" xmlns="http://www.w3.org/2000/svg">
<path transform="translate(0)" d="m0 0h1600v448h-1600v-448z" fill="#FCFCFC"/>
<path transform="translate(1444 97.6)" d="m0 0c1.01-0.0245 2.01-0.049 3.05-0.0742 0.971-0.00387 1.94-0.00773 2.94-0.0117 0.888-0.00822 1.78-0.0164 2.69-0.0249 3.35 0.667 4.36 1.78 6.44 4.49 0.374 2.65 0.508 4.88 0.454 7.52 5.84e-4 0.752 0.00117 1.5 0.00177 2.28-0.00278 2.48-0.0339 4.96-0.0652 7.43-0.00746 1.72-0.0132 3.44-0.0172 5.16-0.0153 4.52-0.0545 9.05-0.0988 13.6-0.0409 4.62-0.0592 9.24-0.0793 13.9-0.0429 9.06-0.111 18.1-0.195 27.2 4.5 0.101 7.13-0.263 11.1-2.38 13.3-6.35 30-6.46 43.9-1.62 15.2 6.84 25.7 18.1 32.4 33.2 3.29 8.83 3.76 16.7 3.76 26.1 0.0122 1.19 0.0245 2.38 0.0371 3.61 0.0245 14.8-3.43 28.7-13.2 40.1-0.606 0.803-1.21 1.61-1.84 2.43-7.83 9.29-18.4 14.5-30.2 16.6-3.41 0.211-6.83 0.185-10.2 0.188-0.904 0.0122-1.81 0.0245-2.74 0.0371-9.41 0.0203-17.1-1.93-25.6-5.85-0.723-0.325-1.45-0.65-2.19-0.984-1.75-0.789-3.5-1.59-5.25-2.39-0.309 1.14-0.309 1.14-0.625 2.31-1.87 3.66-3.53 4.31-7.38 5.69-2.75 0.414-5.42 0.466-8.19 0.438-0.711 0.02-1.42 0.04-2.15 0.0605-5.12-0.00481-5.12-0.00481-7.36-2.04-1.79-3.37-1.73-6.48-1.71-10.2-0.00806-0.786-0.0161-1.57-0.0244-2.38-0.0234-2.64-0.0254-5.27-0.0275-7.91-0.0123-1.89-0.0259-3.78-0.0406-5.67-0.0362-5.13-0.0536-10.3-0.0672-15.4-0.0168-5.36-0.0489-10.7-0.0788-16.1-0.0479-9.01-0.0839-18-0.113-27-0.0334-10.4-0.0844-20.8-0.145-31.3-0.058-10-0.105-20-0.146-30-0.0176-4.27-0.0391-8.54-0.0636-12.8-0.0282-5.02-0.0464-10-0.0567-15.1-0.0054-1.85-0.0142-3.69-0.0267-5.54-0.0164-2.51-0.0205-5.03-0.0213-7.54-0.00767-0.739-0.0153-1.48-0.0232-2.24 0.032-9.14 5.63-7.63 13.1-7.64z" fill="#030303"/>
<path transform="translate(1090 97.9)" d="m0 0c1 0.00524 2 0.0105 3.03 0.0159 1.08 0.00322 2.16 0.00645 3.27 0.00977 1.7 0.0126 1.7 0.0126 3.44 0.0254 1.71 0.00677 1.71 0.00677 3.46 0.0137 2.83 0.0118 5.65 0.0283 8.48 0.0488 2.49 4.78 2.2 9.17 2.09 14.4-0.0207 1.98-0.0388 3.97-0.0547 5.95-0.00935 1.07-0.0187 2.14-0.0283 3.24-0.0192 6.08 0.0977 12.2 0.208 18.2 0.0198 1.13 0.0396 2.26 0.0599 3.42 0.0719 4.04 0.147 8.08 0.221 12.1 0.165 9.12 0.33 18.2 0.5 27.6 35.6 0.33 71.3 0.66 108 1-0.0792-27.6-0.0792-27.6-0.18-55.1-0.00903-5.32-0.00903-5.32-0.0107-7.81-0.00308-1.74-0.0101-3.49-0.0203-5.23-0.0146-2.64-0.0167-5.27-0.0159-7.91-0.0072-0.78-0.0144-1.56-0.0218-2.36 0.0208-5.35 0.0208-5.35 2.25-7.58 3.98-0.456 8-0.324 12-0.312 1.68-0.0242 1.68-0.0242 3.39-0.0488 1.6-9.67e-4 1.6-9.67e-4 3.23-0.00195 0.982-0.00298 1.96-0.00596 2.98-0.00903 0.791 0.123 1.58 0.246 2.4 0.372 2.39 3.59 2.28 6.13 2.25 10.3 0.00241 0.746 0.00483 1.49 0.00732 2.26 0.00565 2.51-0.00304 5.02-0.0116 7.52 0.00107 1.8 0.00301 3.59 0.00575 5.39 0.00486 4.88-0.00282 9.77-0.013 14.7-0.00878 5.11-0.00702 10.2-0.00664 15.3-9.37e-4 8.6-0.00963 17.2-0.0233 25.8-0.0157 9.92-0.021 19.8-0.0203 29.8 6.77e-4 10.6-0.00628 21.2-0.0154 31.7-0.00213 3.04-0.00284 6.08-0.00324 9.12-0.00101 4.79-0.00716 9.59-0.0172 14.4-0.0029 1.75-0.00415 3.51-0.00357 5.26 0.00183 8.88-0.0803 17.7-1.15 26.5-3.37 0.14-6.75 0.234-10.1 0.312-1.43 0.0628-1.43 0.0628-2.88 0.127-0.928 0.0161-1.86 0.0322-2.81 0.0488-1.27 0.0393-1.27 0.0393-2.57 0.0793-3.7-0.805-6.23-2.7-8.61-5.57-0.609-2.83-0.822-4.82-0.773-7.64-0.0106-0.752-0.0213-1.5-0.0322-2.28-0.028-2.47-0.014-4.94 4.73e-4 -7.42-0.0113-1.72-0.0251-3.44-0.0415-5.16-0.036-4.52-0.0364-9.03-0.0293-13.5 9.13e-4 -4.61-0.0319-9.22-0.062-13.8-0.0539-9.04-0.07-18.1-0.0625-27.1-13.8-0.0233-27.6-0.0409-41.4-0.0518-6.41-0.00523-12.8-0.0123-19.2-0.0236-6.18-0.0108-12.4-0.0168-18.5-0.0194-2.36-0.00185-4.73-0.00548-7.09-0.0109-3.3-0.00721-6.59-0.00826-9.89-0.0078-0.988-0.0036-1.98-0.00719-2.99-0.0109-0.893 0.00137-1.79 0.00275-2.71 0.00417-0.781-9.22e-4 -1.56-0.00184-2.37-0.00279-1.8-0.0708-1.8-0.0708-2.78 1.12-0.12 2.49-0.175 4.95-0.189 7.44-0.0124 1.17-0.0124 1.17-0.0251 2.36-0.0174 1.7-0.0326 3.39-0.0458 5.09-0.021 2.68-0.048 5.36-0.0767 8.04-0.0598 5.69-0.112 11.4-0.163 17.1-0.0591 6.59-0.121 13.2-0.192 19.8-0.0267 2.65-0.0474 5.3-0.068 7.95-0.0166 1.61-0.0335 3.23-0.0507 4.84-0.00418 0.743-0.00837 1.49-0.0127 2.25-0.0629 5.08-0.0629 5.08-1.18 6.19-1.83 0.0996-3.66 0.131-5.5 0.133-1.12 0.00129-2.23 0.00258-3.38 0.00391-1.76-0.0058-1.76-0.0058-3.56-0.0117-1.17 0.00387-2.34 0.00773-3.55 0.0117-1.12-0.00129-2.23-0.00258-3.38-0.00391-1.03-0.00113-2.06-0.00226-3.12-0.00342-2.51-0.129-2.51-0.129-4.51-1.13-2.15-8.74-1.15-18.7-1.15-27.7-3e-3 -1.78-0.0064-3.55-0.0102-5.33-0.00879-4.8-0.0112-9.6-0.0118-14.4-7.13e-4 -3-0.00285-6-0.0055-9-0.00923-10.5-0.0133-20.9-0.0125-31.4 6.02e-4 -9.76-0.00998-19.5-0.0257-29.3-0.0131-8.39-0.0184-16.8-0.0178-25.2 2.55e-4 -5.01-0.0026-10-0.0132-15-0.00967-4.7-0.00977-9.4-0.00248-14.1 0.00105-1.72-0.00133-3.45-0.00736-5.17-0.0077-2.35-0.00309-4.71 0.00463-7.06-5.45e-4 -1.32-0.00109-2.63-0.00165-3.99 0.677-9.29 0.677-9.29 5.57-9.53z" fill="#030303"/>
<path transform="translate(911 97)" d="m0 0c11.1 0.24 11.1 0.24 14.9 3.78 2.26 2.89 3.85 6.06 5.29 9.43 1.16 2.57 2.76 4.73 4.44 6.99 0.828 1.19 0.828 1.19 1.67 2.4 1.83 2.6 3.7 5.16 5.58 7.73 3.39 4.63 6.66 9.33 9.91 14.1 2.03 2.95 4.1 5.85 6.28 8.69 3.25 4.24 6.11 8.72 9.01 13.2 3.31 4.73 3.31 4.73 8.18 7.48 0.577 0.0825 1.15 0.165 1.75 0.25 0.246-0.708 0.492-1.42 0.746-2.14 1.41-3.22 3.2-5.73 5.32-8.54 2.7-3.52 2.7-3.52 4.94-7.31h2c0.364-1.04 0.364-1.04 0.734-2.11 1.48-3.38 3.38-6.13 5.52-9.14 0.812-1.15 1.62-2.3 2.43-3.45 0.396-0.56 0.791-1.12 1.2-1.7 1.97-2.82 3.85-5.71 5.73-8.6 1.39-2 1.39-2 3.15-4.15 3.77-4.79 7.07-9.92 10.5-15 0.556-0.822 1.11-1.64 1.68-2.49 0.498-0.743 0.996-1.49 1.51-2.25 4.44-5.94 4.44-5.94 8.58-6.59 1.14 0.0146 2.28 0.0292 3.45 0.0442 1.24 0.00838 2.48 0.0168 3.76 0.0254 1.94 0.0435 1.94 0.0435 3.92 0.0879 1.95 0.0145 1.95 0.0145 3.94 0.0293 9.6 0.115 9.6 0.115 11.9 1.28-0.49 5.15-3.1 8.66-5.94 12.8-0.456 0.693-0.911 1.39-1.38 2.1-1.17 1.74-2.42 3.42-3.68 5.09h-2c-0.246 0.871-0.492 1.74-0.746 2.64-1.34 3.58-3.01 6.07-5.32 9.11-2.7 3.48-2.7 3.48-4.94 7.25h-2c-0.26 0.723-0.521 1.45-0.789 2.19-1.25 2.9-2.74 5.19-4.59 7.75-2.05 2.86-4.06 5.71-5.94 8.69-0.557 0.784-1.11 1.57-1.69 2.38h-2c-0.402 1.08-0.402 1.08-0.812 2.19-1.65 3.91-3.84 7.29-6.19 10.8h-2c-0.268 0.969-0.536 1.94-0.812 2.94-0.392 1.01-0.784 2.02-1.19 3.06-1.49 0.495-1.49 0.495-3 1-0.68 2-1.34 4-2 6-1.28 1.71-2.62 3.37-4 5-3.13 3.74-3.13 3.74-3.86 8.3 1.1 3.44 2.82 5.88 4.92 8.82 0.4 0.564 0.801 1.13 1.21 1.71 1.23 1.73 2.48 3.45 3.72 5.17 0.737 1.02 1.47 2.03 2.23 3.08 1.31 1.8 2.62 3.59 3.94 5.38 1.28 1.78 2.53 3.59 3.74 5.41 2.29 3.43 4.67 6.78 7.08 10.1 3.09 4.28 6.07 8.61 9 13 1.59 2.26 3.2 4.51 4.81 6.75 3.54 4.94 7.06 9.9 10.5 14.9 1.14 1.63 2.3 3.26 3.46 4.88 10.2 14.3 10.2 14.3 10.2 18.5-4.36 0.0742-8.72 0.129-13.1 0.165-1.48 0.0151-2.97 0.0356-4.45 0.0615-2.13 0.0364-4.26 0.0534-6.4 0.0667-1.28 0.0157-2.57 0.0314-3.89 0.0476-3.19-0.341-3.19-0.341-5.02-1.73-0.579-0.799-0.579-0.799-1.17-1.61-0.596-0.703-1.19-1.41-1.8-2.13-2.93-3.83-5.62-7.81-8.32-11.8-4-5.88-8.03-11.7-12.2-17.5-3.02-4.19-5.96-8.43-8.81-12.8-3.79-5.74-7.79-11.3-11.9-16.8-0.583-0.813-1.17-1.63-1.77-2.46-0.531-0.733-1.06-1.47-1.61-2.22-0.461-0.643-0.923-1.29-1.4-1.95-0.607-0.675-0.607-0.675-1.23-1.36h-2c-1.52 1.92-1.52 1.92-3 4.31l-1.56 2.43c-0.474 0.746-0.949 1.49-1.44 2.26-0.66 0.99-1.32 1.98-2 3h-2c-0.237 0.688-0.474 1.38-0.719 2.09-1.53 3.48-3.58 6.46-5.78 9.54-0.802 1.14-1.6 2.28-2.41 3.41-0.691 0.977-1.38 1.95-2.09 2.96-0.66 0.99-1.32 1.98-2 3h-2c-0.247 0.887-0.495 1.77-0.75 2.69-1.32 3.51-2.88 5.42-5.25 8.31-1.62 2.22-3.22 4.45-4.81 6.69-0.436 0.612-0.872 1.22-1.32 1.85-3.16 4.44-6.29 8.9-9.39 13.4-0.486 0.688-0.972 1.38-1.47 2.09-0.379 0.695-0.759 1.39-1.15 2.11-1.85 1.89-1.85 1.89-5.04 2.35-1.28-0.0209-2.57-0.0419-3.89-0.0635-0.684-0.00566-1.37-0.0113-2.07-0.0172-2.18-0.0224-4.36-0.0726-6.54-0.123-1.48-0.0201-2.96-0.0383-4.44-0.0547-3.62-0.0441-7.25-0.113-10.9-0.195 0-4.29 0.39-5.04 2.75-8.38 0.548-0.786 1.1-1.57 1.66-2.38 0.787-1.11 0.787-1.11 1.59-2.24 1.93-2.87 3.83-5.7 5.56-8.69 1.44-2.31 1.44-2.31 2.78-3.59 2.22-2.3 3.84-4.86 5.59-7.53 0.669-1.02 1.34-2.03 2.03-3.08 1.05-1.6 2.1-3.2 3.11-4.83 0.925-1.46 1.92-2.87 2.93-4.28h2c0.267-0.733 0.534-1.47 0.809-2.22 1.17-2.74 2.5-4.82 4.25-7.21 3.47-4.83 6.68-9.79 9.83-14.8 1.83-2.89 3.64-5.37 6.11-7.73 0.991-1.37 1.95-2.77 2.88-4.19 0.518-0.788 1.04-1.58 1.57-2.39 1.88-2.93 3.69-5.9 5.48-8.89 1.08-1.53 1.08-1.53 3.08-2.53 0.42-5.04-0.43-7.26-3.56-11.2-3.61-4.68-6.81-9.46-9.89-14.5-1.41-2.28-1.41-2.28-3.03-3.79-2.06-2.07-3.42-4.41-4.95-6.9-2.32-3.76-4.78-7.2-7.56-10.6-1.12-1.55-2.22-3.11-3.31-4.69-0.605-0.87-1.21-1.74-1.83-2.64-0.612-0.883-1.22-1.77-1.86-2.68-1.17-1.67-2.33-3.33-3.5-5-0.574-0.821-1.15-1.64-1.74-2.49-1.2-1.71-2.41-3.42-3.62-5.12-2.63-3.7-5.2-7.36-7.39-11.3-1.53-2.67-2.64-3.96-4.75-6.06-1.45-1.79-2.86-3.6-4.25-5.44-0.727-0.947-1.45-1.89-2.2-2.87-1.55-2.69-1.55-2.69-1.34-4.98 2.59-5.58 14.2-3.66 19.8-3.73z" fill="#030303"/>
<path transform="translate(492 97.6)" d="m0 0c1.05-0.0329 2.11-0.0657 3.2-0.0996 1.02-0.00709 2.03-0.0142 3.08-0.0215 0.93-0.0135 1.86-0.0269 2.82-0.0408 3.67 0.869 4.54 2.43 6.53 5.6 0.419 2.9 0.6 5.43 0.603 8.33 0.0161 0.861 0.0322 1.72 0.0487 2.61 0.049 2.96 0.0681 5.91 0.0868 8.87 0.0275 2.18 0.0561 4.36 0.0858 6.54 0.0865 7.13 0.13 14.3 0.165 21.4 0.0114 2.32 0.0238 4.64 0.0364 6.96 0.132 24.8 0.161 49.7 0.16 74.5 3.45e-4 7.91 0.012 15.8 0.0259 23.7 0.0131 7.73 0.0184 15.5 0.0178 23.2-2.53e-4 4.57 0.0025 9.14 0.0132 13.7 0.0097 4.26 0.00975 8.52 0.00248 12.8-0.00104 1.55 0.00129 3.11 0.00736 4.66 0.0297 8.13-0.229 15.8-2.25 23.8-0.211 1.01-0.423 2.02-0.641 3.07-1.62 6.63-4.23 11.5-8.36 16.9-0.743 1.01-1.49 2.02-2.25 3.06-0.577 0.639-1.15 1.28-1.75 1.94h-2c-0.26 0.597-0.521 1.19-0.789 1.81-1.97 3.56-5.08 5.67-8.21 8.19-0.66 0.619-1.32 1.24-2 1.88-3.08 1.73-5.55 1.5-9 1.12-3.48-2.54-5.2-6.65-7.19-10.4-0.368-0.66-0.736-1.32-1.12-2-1.97-3.68-3.2-6.33-2.7-10.6 2.48-0.99 2.48-0.99 5-2v-2c0.743-0.433 1.49-0.866 2.25-1.31 4.87-2.99 8.79-8.22 10.3-13.8 0.59-4.05 0.552-8.03 0.531-12.1-5.57e-4 -0.93-0.00111-1.86-0.00169-2.82-0.00304-3.12-0.0132-6.23-0.0233-9.35-0.00356-2.23-0.00664-4.47-0.00929-6.7-0.00655-4.81-0.0161-9.62-0.0279-14.4-0.0183-7.6-0.0279-15.2-0.0359-22.8-0.0119-10.6-0.0259-21.3-0.0431-31.9-0.00164-1.01-0.00164-1.01-0.0033-2.05-0.0156-9.6-0.0342-19.2-0.054-28.8-0.00209-1.01-0.00209-1.01-0.00422-2.05-0.00139-0.676-0.00279-1.35-0.00422-2.05-0.023-11.3-0.0382-22.5-0.0473-33.8-0.00656-7.56-0.0222-15.1-0.0443-22.7-0.0117-4.69-0.0151-9.39-0.0161-14.1-0.00216-2.18-0.00778-4.37-0.017-6.55-0.0121-2.97-0.012-5.94-0.00883-8.91-0.00651-0.874-0.013-1.75-0.0197-2.65 0.0426-10 5.19-8.57 13.6-8.61z" fill="#030303"/>
<path transform="translate(754 172)" d="m0 0c1.29-0.0184 1.29-0.0184 2.61-0.0371 14-0.0316 25.4 4.75 35.7 14.2 9.13 9.58 12.1 21.7 12.2 34.6 0.0124 1.08 0.0124 1.08 0.0251 2.19 0.0173 1.55 0.0325 3.1 0.0458 4.66 0.0212 2.45 0.0482 4.91 0.0767 7.36 0.0695 6.09 0.129 12.2 0.189 18.3 0.0509 5.16 0.106 10.3 0.166 15.5 0.0266 2.42 0.0474 4.85 0.068 7.27 0.0166 1.47 0.0335 2.95 0.0507 4.42 0.0125 1.29 0.0251 2.58 0.038 3.91-0.176 2.78-0.176 2.78 1.15 3.88 0.141 2.67 0.0425 5.32 0 8-3.56 0.0874-7.12 0.141-10.7 0.188-1.01 0.0251-2.01 0.0503-3.05 0.0762-4.09 0.0404-7.46 0.0137-11.3-1.34-4.18-4.2-4.05-9.72-4.13-15.3 0.00705-2.56 0.0247-5.13 0.051-7.69 0.00628-1.38 0.0115-2.76 0.0158-4.14 0.0132-3.62 0.0376-7.24 0.0654-10.9 0.0432-5.78 0.0731-11.6 0.096-17.3 0.0101-2 0.0274-4 0.045-6 0.299-15.7 0.299-15.7-6.06-29.6-6.32-6.32-14.4-6.9-23-7-8.28 0.564-14.9 2.87-22 7-0.949 0.516-1.9 1.03-2.88 1.56-2.25 1.42-2.25 1.42-4.31 3.62-0.598 0.598-1.2 1.2-1.81 1.81h-2c-1.06 8.21-1.11 16.3-1.06 24.6 0.00442 1.39 0.00823 2.79 0.0115 4.18 0.0132 5.13 0.0375 10.3 0.0614 15.4 0.0199 4.35 0.0355 8.7 0.0456 13 0.00638 2.02 0.019 4.03 0.0317 6.05 0.0193 7.31-0.255 14.5-1.09 21.7-3.96 0.0277-7.92 0.0468-11.9 0.0625l-3.42 0.0254c-1.08 0.00322-2.15 0.00645-3.26 0.00977-0.995 0.00524-1.99 0.0105-3.02 0.0159-2.43-0.114-2.43-0.114-4.43-1.11-0.0934-15.5-0.164-30.9-0.207-46.4-0.0206-7.18-0.0488-14.4-0.0945-21.5-0.0398-6.26-0.0657-12.5-0.0746-18.8-0.00522-3.31-0.0196-6.63-0.0466-9.94-0.0289-3.7-0.033-7.39-0.0312-11.1-0.0144-1.1-0.0288-2.2-0.0436-3.34 0.0055-1.01 0.011-2.01 0.0167-3.05-0.00369-0.875-0.00737-1.75-0.0112-2.65 0.492-2.23 0.492-2.23 2.28-4 3.41-1.89 6.85-1.78 10.7-1.79 0.751-0.0367 1.5-0.0735 2.28-0.111 5.39-0.0427 5.39-0.0427 7.91 1.97 2.28 2.67 3.97 5.18 4.38 8.71 3.98-0.306 6.8-1.32 10.2-3.31 9.47-5.54 18.7-7.87 29.5-7.88z" fill="#030303"/>
<path transform="translate(1295 173)" d="m0 0c1.35-0.0493 1.35-0.0493 2.74-0.0996 0.877-0.00709 1.75-0.0142 2.66-0.0215 0.799-0.0135 1.6-0.0269 2.42-0.0408 3.58 0.905 5.04 2.79 7.37 5.6 0.626 3.18 0.626 3.18 0.628 6.8 0.0109 0.996 0.0109 0.996 0.022 2.01 0.0185 2.19 0.00253 4.37-0.013 6.56 0.00805 1.53 0.0186 3.07 0.0314 4.6 0.0285 4.04 0.0291 8.08 0.0221 12.1-0.00732 6.44 0.0244 12.9 0.0624 19.3 0.00874 2.23 0.00359 4.46-0.00356 6.69-0.436 14.8-0.436 14.8 5.25 27.9v2c1.08 0.402 1.08 0.402 2.19 0.812 2.81 1.19 2.81 1.19 5.38 2.75 8.04 4.74 20.7 3.13 29.4 1.07 2.67-0.836 4.74-1.99 7.01-3.63 0.949-0.598 1.9-1.2 2.88-1.81 1.55-1.08 1.55-1.08 3.12-2.19 0.597-0.292 1.19-0.585 1.81-0.886 2.44-1.48 3.66-2.68 5.19-5.11 1.05-6.06 0.882-12.1 0.797-18.2 0.00177-1.8 0.00705-3.6 0.0157-5.4 0.0152-4.73-0.00857-9.46-0.0432-14.2-0.0505-7.58-0.0489-15.2-0.0336-22.7-0.00137-2.65-0.0237-5.29-0.0486-7.94-0.00344-1.62-0.0063-3.24-0.00848-4.85-0.0124-0.737-0.0249-1.47-0.0377-2.23 0.0177-4.96 0.0177-4.96 1.73-7.4 2.29-1.47 3.99-1.4 6.7-1.37 0.978 0.00516 1.96 0.0103 2.96 0.0156 1.02 0.0206 2.04 0.0412 3.09 0.0625 1.03 0.00516 2.05 0.0103 3.11 0.0156 7.61 0.0804 7.61 0.0804 8.76 1.23 0.125 2.71 0.186 5.39 0.205 8.1 0.0099 0.851 0.0198 1.7 0.03 2.58 0.0318 2.84 0.0565 5.68 0.0811 8.53 0.0206 1.99 0.0416 3.98 0.063 5.98 0.0441 4.2 0.085 8.41 0.123 12.6 0.0484 5.3 0.102 10.6 0.158 15.9 0.134 12.8 0.249 25.5 0.339 38.3 0.00589 0.825 0.0118 1.65 0.0178 2.5 0.0343 4.97 0.0571 9.95 0.072 14.9 0.0101 1.79 0.0101 1.79 0.0204 3.61 9.21e-4 1.06 0.00184 2.12 0.00279 3.21 0.00368 1.36 0.00368 1.36 0.00743 2.74-0.12 2.02-0.12 2.02-1.12 3.02-3.24 0.334-6.5 0.325-9.75 0.375-1.36 0.0561-1.36 0.0561-2.75 0.113-4.63 0.0609-6.79 0.0429-10.6-2.8-2.13-2.99-2.66-5.06-2.91-8.68-0.949 0.495-1.9 0.99-2.88 1.5-3.12 1.5-3.12 1.5-5.12 1.5v2c-2.23 0.985-4.46 1.96-6.69 2.94-0.626 0.278-1.25 0.556-1.9 0.842-7.19 3.13-13.4 3.4-21.2 3.41-0.951 0.0122-1.9 0.0245-2.88 0.0371-9.77 0.0201-17.3-1.78-25.9-6.35-0.723-0.373-1.45-0.745-2.19-1.13-1.75-0.906-3.5-1.82-5.25-2.75v-2c-0.598-0.266-1.2-0.531-1.81-0.805-7.49-4.09-11.3-13-13.8-20.8-2.21-8.33-1.82-16.8-1.77-25.4 5.19e-4 -1.82-1.63e-6 -3.64-0.00151-5.45 8.92e-5 -3.79 0.0104-7.57 0.0286-11.4 0.0228-4.86 0.0232-9.72 0.0165-14.6-0.00333-3.74 0.00328-7.49 0.0131-11.2 0.00385-1.79 5e-3 -3.59 0.00341-5.38-3.69e-4 -2.49 0.0122-4.99 0.0285-7.48-0.00248-0.742-0.00495-1.48-0.00751-2.25 0.0918-8.77 4.77-7.72 12.1-7.77z" fill="#030303"/>
<path transform="translate(554 172)" d="m0 0c0.898-0.0284 1.8-0.0567 2.72-0.0859 0.873-0.00258 1.75-0.00516 2.64-0.00781 0.793-0.00709 1.59-0.0142 2.4-0.0215 3.57 0.933 5.03 2.79 7.36 5.62 0.633 3.33 0.633 3.33 0.644 7.16 0.00888 0.701 0.0178 1.4 0.0269 2.13 0.0236 2.31 0.0125 4.62 0.00142 6.93 0.0106 1.61 0.0235 3.23 0.0386 4.84 0.0342 4.24 0.0396 8.48 0.0381 12.7 0.00278 5.14 0.0356 10.3 0.0681 15.4 0.0253 4 0.0448 8.01 0.0458 12 0.00382 1.46 0.00767 2.92 0.0115 4.38 4.63e-4 1.27 9.27e-4 2.53 0.0014 3.84 0.231 6.63 0.908 12.3 5.12 17.6 6.11 5.62 12.6 7.36 20.8 7.25 0.708-0.00749 1.42-0.015 2.14-0.0227 8.71-0.179 14.8-1.67 22.2-6.2 1.85-1.02 1.85-1.02 3.85-1.02v-2c1.65-1.03 3.32-2.02 5-3 1.77-1.06 1.77-1.06 3-3 0.294-2.65 0.407-5.07 0.385-7.73 0.00537-0.786 0.0107-1.57 0.0163-2.38 0.00978-1.71 0.0127-3.41 0.00964-5.12-0.00447-2.7 0.0095-5.4 0.0284-8.09 0.0368-5.73 0.0505-11.5 0.0609-17.2 0.0121-6.64 0.0335-13.3 0.08-19.9 0.0136-2.66 0.00939-5.32 0.00459-7.98 0.00934-1.63 0.0195-3.26 0.0306-4.88-0.00615-0.742-0.0123-1.48-0.0186-2.25 0.0601-4.99 0.0601-4.99 1.78-7.44 2.29-1.47 3.99-1.4 6.69-1.37 0.978 0.00516 1.96 0.0103 2.96 0.0156 1.02 0.0206 2.04 0.0412 3.09 0.0625 1.03 0.00516 2.05 0.0103 3.11 0.0156 7.61 0.0804 7.61 0.0804 8.76 1.23 0.124 2.24 0.178 4.49 0.205 6.73 0.00989 0.707 0.0198 1.41 0.03 2.14 0.0318 2.37 0.0565 4.73 0.0811 7.1 0.0207 1.66 0.0418 3.33 0.0632 4.99 0.0559 4.45 0.105 8.9 0.153 13.3 0.0297 2.74 0.0611 5.48 0.093 8.22 0.237 20.4 0.469 40.8 0.499 61.2 0.00259 0.804 0.00518 1.61 0.00784 2.44 0.00568 2.18 0.00442 4.37-3.05e-5 6.55-0.00113 1.16-0.00226 2.31-0.00342 3.51-0.129 2.76-0.129 2.76-1.13 5.76-3.23 0.146-6.46 0.234-9.69 0.312-0.912 0.0419-1.82 0.0838-2.76 0.127-4.69 0.0852-6.82 0.121-10.6-2.81-1.71-2.35-2.59-3.77-2.91-6.62-2.64 0.33-5.28 0.66-8 1v2c-2.39 0.985-4.79 1.96-7.19 2.94-0.674 0.278-1.35 0.556-2.04 0.842-0.661 0.267-1.32 0.535-2 0.811-0.602 0.246-1.2 0.492-1.82 0.746-12.9 4.4-30.6 3.07-42.9-2.34-3.87-2.06-7.61-4.19-11-7v-2c-0.557-0.206-1.11-0.413-1.69-0.625-6.24-3.71-10.3-11-12.4-17.8-1.36-5.74-1.25-11.5-1.29-17.4-0.017-1.22-0.034-2.43-0.0515-3.69-0.0529-3.87-0.0933-7.74-0.132-11.6-0.044-3.88-0.0908-7.76-0.143-11.6-0.0318-2.41-0.0587-4.82-0.0802-7.23-0.0135-1.09-0.027-2.19-0.0409-3.32-0.00951-0.957-0.019-1.91-0.0288-2.9-0.155-2.99-0.622-5.85-1.14-8.79-0.229-3.89-0.231-7.79-0.25-11.7-0.0206-1.04-0.0412-2.09-0.0625-3.17-0.00516-1-0.0103-2-0.0156-3.03-0.00935-0.91-0.0187-1.82-0.0283-2.76 0.356-2.36 0.356-2.36 1.6-4.15 3.44-2.36 7.6-1.72 11.6-1.71z" fill="#030303"/>
<path transform="translate(1512 204)" d="m0 0c8.07 7.65 11.9 16.5 12.3 27.6 0.168 10.6-1.33 20.8-7.65 29.6-11.3 10.1-21.3 11.1-35.9 10.6-7.84-0.736-16.3-3.31-22-9-0.267-2.22-0.267-2.22-0.291-5.01-0.0128-1.04-0.0255-2.09-0.0387-3.17-0.00223-1.13-0.00445-2.27-0.00674-3.43-0.00666-1.16-0.0133-2.32-0.0202-3.52-0.0101-2.46-0.0148-4.92-0.0145-7.39-0.00436-3.77-0.0406-7.53-0.0786-11.3-0.00587-2.39-0.00984-4.78-0.0117-7.17-0.0144-1.13-0.0287-2.25-0.0435-3.42 0.0457-7.83 0.0457-7.83 2.41-11.8 1.94-1.7 3.56-2.9 5.9-3.95 0.696-0.318 1.39-0.637 2.11-0.965 0.686-0.3 1.37-0.601 2.08-0.91 1.76-0.835 1.76-0.835 3.56-1.69 12.4-4.73 27.3-3.56 37.6 4.97z" fill="#FDFDFD"/>
<path transform="translate(846 173)" d="m0 0c1.47 0.0145 1.47 0.0145 2.97 0.0293 1.52 0.0377 1.52 0.0377 3.08 0.0762 1.55 0.0203 1.55 0.0203 3.12 0.041 2.54 0.0353 5.08 0.0846 7.62 0.146 1.23 2.47 1.12 4.08 1.12 6.83 0.00137 1.02 0.00275 2.04 0.00417 3.09-0.0036 1.12-0.00719 2.25-0.0109 3.41 1.46e-4 1.18 2.92e-4 2.36 4.43e-4 3.58-5.78e-4 3.24-0.0056 6.48-0.0126 9.72-0.00624 3.39-0.00684 6.77-0.00803 10.2-0.00311 6.41-0.0113 12.8-0.0213 19.2-0.0112 7.3-0.0167 14.6-0.0217 21.9-0.0105 15-0.0281 30-0.0503 45.1-3.23 0.0875-6.46 0.141-9.69 0.188-0.912 0.0251-1.82 0.0503-2.76 0.0762-8.72 0.0951-8.72 0.0951-12.5-3.26-1.83-3-2.25-5.26-2.27-8.75-0.00853-0.952-0.0171-1.9-0.0258-2.88 9.06e-4 -1.04 0.00181-2.08 0.00275-3.14-0.00672-1.1-0.0134-2.2-0.0204-3.33-0.019-3.63-0.0229-7.26-0.0251-10.9-0.00642-2.52-0.0132-5.04-0.0202-7.56-0.012-5.28-0.0158-10.6-0.0145-15.9 0.0012-6.11-0.0199-12.2-0.0515-18.3-0.0293-5.88-0.0365-11.8-0.0353-17.6-0.00237-2.5-0.0112-5-0.0267-7.5-0.0195-3.49-0.0139-6.98-0.00179-10.5-0.0112-1.04-0.0225-2.08-0.0341-3.15 0.00839-0.949 0.0168-1.9 0.0254-2.88-0.00109-0.825-0.00218-1.65-0.0033-2.5 0.498-2.12 0.498-2.12 2.37-3.89 2.63-1.53 4.3-1.58 7.33-1.53z" fill="#030303"/>
<path transform="translate(226 215)" d="m0 0c5.31 5.31 8.52 12 8.69 19.4-0.0481 6.22-1.13 10.6-4.31 15.9-0.536 0.928-1.07 1.86-1.62 2.81-6.26 5.76-14 6.94-22.3 6.62-8.36-1.18-13.2-6.15-18.6-12.4-3.82-5.21-3.25-11.9-2.53-18.1 2.71-7.51 6.72-13.1 13.8-17 9.42-4.2 18.4-2.68 26.9 2.58z" fill="#030303"/>
<path transform="translate(116,370)" d="m0 0c0.66 0.99 1.32 1.98 2 3 2.75 0.358 5.31 0.558 8.06 0.625 7.83 0.271 7.83 0.271 8.94 1.38 2.96 0.293 5.91 0.526 8.88 0.719 0.912 0.0625 1.82 0.125 2.76 0.189 2.97 0.202 5.95 0.397 8.92 0.592 2.02 0.136 4.04 0.272 6.06 0.408 11.7 0.774 23.3 1.47 35 1.8 6.29 0.195 6.29 0.195 7.39 1.29 2.28 0.0291 4.56-0.0137 6.84-0.0859 0.684-0.0212 1.37-0.0425 2.07-0.0644 1.45-0.0463 2.9-0.0953 4.35-0.147 2.23-0.0778 4.45-0.145 6.68-0.211 1.4-0.0462 2.81-0.0931 4.21-0.141 1.29-0.043 2.57-0.086 3.9-0.13 2.83 0.109 2.83 0.109 3.94-1.22 2.75-0.569 5.49-1.09 8.25-1.56 0.764-0.139 1.53-0.277 2.32-0.42 8.24-1.44 8.24-1.44 11.4-1.02 2.28 3.42 2.22 4.68 2.12 8.69-0.018 0.994-0.0361 1.99-0.0547 3.01-0.0232 0.759-0.0464 1.52-0.0703 2.3-1.7 0.217-1.7 0.217-3.44 0.438-3.37 0.174-3.37 0.174-4.56 1.56-1.4 0.098-2.81 0.128-4.21 0.129-1.34 0.00473-1.34 0.00473-2.71 0.00955-1.46-0.00304-1.46-0.00304-2.95-0.00613-0.993 9.57e-4 -1.99 0.00191-3.01 0.0029-2.1 6.82e-4 -4.21-0.00117-6.31-0.00534-3.23-0.00534-6.46-5.85e-5 -9.69 0.00635-2.04-6.61e-4 -4.08-0.00194-6.12-0.00391-0.971 0.00202-1.94 0.00405-2.94 0.00613-0.898-0.00315-1.8-0.0063-2.72-0.00955-0.792-7.96e-4 -1.58-0.00159-2.4-0.00241-1.94-0.127-1.94-0.127-3.94-1.13-2.46-0.353-4.91-0.661-7.38-0.938-1.49-0.174-2.99-0.349-4.48-0.523-2.36-0.271-4.72-0.541-7.08-0.81-2.27-0.26-4.55-0.526-6.82-0.792-0.71-0.0792-1.42-0.158-2.15-0.24-4.98-0.585-4.98-0.585-6.09-1.7-2.2-0.359-4.41-0.66-6.62-0.938-0.993-0.127-0.993-0.127-2.01-0.258-2.12-0.272-4.25-0.539-6.37-0.805-2.79-0.349-5.58-0.704-8.38-1.06-1.25-0.156-2.49-0.312-3.77-0.473-2.85-0.465-2.85-0.465-3.85-1.46-1.6-0.203-3.2-0.347-4.8-0.465-0.976-0.078-1.95-0.156-2.96-0.236-2.07-0.157-4.14-0.311-6.2-0.461-0.978-0.0793-1.96-0.159-2.96-0.24-0.9-0.067-1.8-0.134-2.73-0.203-2.34-0.395-2.34-0.395-5.34-2.39 0.33-1.98 0.66-3.96 1-6z" fill="#030303"/>
<path transform="translate(319 115)" d="m0 0c16.7 11 28.5 45 34.8 63 1.31 3.67 2.75 7.28 4.22 10.9 1.41 3.54 2.67 7.12 3.96 10.7 0.972 2.64 2.01 5.25 3.07 7.85 1.26 3.1 2.38 6.18 3.38 9.38 1.06 3.27 2.37 6.25 3.94 9.31 1.94 3.8 3.81 7.61 5.56 11.5 0.442 0.966 0.884 1.93 1.34 2.93 0.884 3.38 0.423 4.76-1.28 7.76-2.12 1.31-2.12 1.31-4 2v-2c0.66-0.33 1.32-0.66 2-1-0.0825-1.22-0.165-2.43-0.25-3.69-0.0464-0.684-0.0928-1.37-0.141-2.07-0.83-3.05-2.6-4.82-4.61-7.24-0.971-1.74-1.89-3.52-2.75-5.31-1.75-3.59-3.49-7.19-5.31-10.7-0.353-0.695-0.706-1.39-1.07-2.11-0.687-1.35-1.38-2.7-2.07-4.05-1.62-3.21-3.07-6.39-4.29-9.77-1.52-4.18-3.47-8.07-5.51-12-0.657-1.31-1.31-2.62-1.96-3.93-1.01-2.02-2.02-4.05-3.04-6.07-1.45-2.89-2.89-5.78-4.27-8.7-5.8-12.2-13.7-26.5-23.4-36-1.28-1.33-1.28-1.33-1.28-3.33h-2c-3.06-3.13-5.88-6.3-6.19-10.8 2.1-3.98 6.41-8.19 11.2-6.58z" fill="#030303"/>
<path transform="translate(179 77.8)" d="m0 0c0.945-0.00333 1.89-0.00666 2.86-0.0101 2-0.00505 4.01-0.00741 6.01-0.00725 3-0.00216 5.99-0.0202 8.99-0.0393 12.2-0.0355 24.3 0.365 36.4 2.22 0.495 0.495 0.495 0.495 1 1 1.98 0.346 3.98 0.636 5.98 0.902 1.23 0.168 2.46 0.336 3.72 0.51 2.59 0.347 5.19 0.693 7.78 1.04 1.24 0.17 2.47 0.339 3.75 0.514 1.13 0.151 2.26 0.301 3.42 0.457 3.35 0.578 3.35 0.578 6.84 1.59 3.54 0.993 6.82 1.46 10.5 1.8 1.28 0.124 2.55 0.249 3.87 0.377 1.33 0.124 2.66 0.247 3.99 0.369 2.63 0.246 5.26 0.499 7.89 0.754 1.16 0.108 2.32 0.215 3.51 0.326 2.78 0.357 2.78 0.357 4.78 1.36v2c1.98 0.99 1.98 0.99 4 2-5.53-0.263-11.1-0.53-16.6-0.8-1.88-0.0912-3.76-0.181-5.64-0.271-2.71-0.129-5.43-0.262-8.14-0.395-0.828-0.0386-1.66-0.0772-2.51-0.117-14.8-0.737-14.8-0.737-18.1-2.42-2.12-0.225-4.26-0.394-6.39-0.535-0.645-0.0432-1.29-0.0863-1.95-0.131-2.11-0.138-4.23-0.269-6.35-0.397-0.722-0.0442-1.44-0.0884-2.19-0.134-30.3-2.97-30.3-2.97-59.7 2.26-3.32 1.28-6.21 1.13-9.75 1.06-1.25-0.018-2.51-0.0361-3.8-0.0547-0.953-0.0232-1.91-0.0464-2.89-0.0703-2.28-4.02-2.15-6.48-1-11 4.76-5.29 13.2-4.16 19.8-4.17z" fill="#030303"/>
<path transform="translate(41,224)" d="m0 0h1c0.206 0.784 0.413 1.57 0.625 2.38 1.49 3.92 3.45 7.14 5.66 10.7 2.62 4.46 4.84 9.08 7.11 13.7 1.42 2.82 2.97 5.5 4.61 8.2 1.4 3.1 2.69 6.22 3.94 9.39 1.78 4.54 3.64 8.96 5.88 13.3 0.936 1.82 1.85 3.66 2.75 5.5 3.34 6.8 6.86 13.4 10.7 19.9 1.7 2.91 3.3 5.85 4.88 8.83 1.98 3.68 4.12 6.85 6.81 10.1v2c0.99 0.33 1.98 0.66 3 1 1.61 1.56 1.61 1.56 3.19 3.44 0.53 0.617 1.06 1.23 1.61 1.87 1.21 1.69 1.21 1.69 1.21 3.69 0.619 0.268 1.24 0.536 1.88 0.812 2.12 1.19 2.12 1.19 4.12 4.19 0.545 3.51 0.62 6.83-1.06 10-3.33 1.72-5.24 1.68-8.94 1-2.82-2.29-4.85-5.09-7-8-0.663-0.856-1.33-1.71-2.01-2.59-4.66-6.16-8.49-12.5-12-19.4-0.465-0.904-0.931-1.81-1.41-2.74-2.05-4.04-3.93-8.05-5.59-12.3-0.769-1.83-1.54-3.67-2.31-5.5-3.5-8.38-6.71-16.9-9.89-25.4-1.45-3.84-2.93-7.66-4.41-11.5-0.981-2.57-1.95-5.14-2.91-7.72-0.516-1.39-1.03-2.78-1.55-4.17-0.252-0.68-0.504-1.36-0.763-2.06-1.65-4.4-3.44-8.68-5.51-12.9-0.664-1.8-0.664-1.8-0.664-5.8h-2c-1.85-3.12-2.29-5.38-2-9 0.33-0.33 0.66-0.66 1-1z" fill="#030303"/>
<path transform="translate(363,263)" d="m0 0c2.38 1.5 2.38 1.5 4 4 0.817 7.25-1.45 12.1-4.69 18.5-0.435 0.898-0.87 1.8-1.32 2.72-2.41 4.91-5.01 9.61-7.99 14.2-1.07 1.61-1.07 1.61-2 3.58h-2c-0.268 0.969-0.536 1.94-0.812 2.94-0.588 1.52-0.588 1.52-1.19 3.06-0.99 0.33-1.98 0.66-3 1-0.268 0.681-0.536 1.36-0.812 2.06-1.67 4.12-4.19 7.65-7.19 10.9h-2c-0.227 0.701-0.454 1.4-0.688 2.12-1.65 3.62-3.6 5.96-6.31 8.88h-2c-0.66 1.65-1.32 3.3-2 5h-2c-0.402 0.864-0.402 0.864-0.812 1.75-1.22 2.31-2.6 4.25-4.19 6.32-1.75 2.28-3.4 4.54-5 6.94h-2c-0.248 0.557-0.495 1.11-0.75 1.69-1.47 2.73-3.27 4.93-5.25 7.31-2.77 3.32-2.77 3.32-5 7h-2c-0.383 1.09-0.383 1.09-0.773 2.2-1.29 2.96-2.83 5.11-4.85 7.61-0.632 0.79-1.26 1.58-1.91 2.39-0.482 0.592-0.964 1.18-1.46 1.79-1.32-0.33-2.64-0.66-4-1l2-2h2c0.103-0.598 0.206-1.2 0.312-1.81 0.794-2.53 1.84-3.34 3.69-5.19 0.717-1.65 1.38-3.31 2-5 0.652-1.34 1.31-2.68 2-4h2c0.165-0.86 0.165-0.86 0.334-1.74 0.751-2.55 1.82-4.27 3.33-6.46 0.54-0.788 1.08-1.58 1.64-2.39 2.67-3.79 5.4-7.55 8.14-11.3 4.3-5.9 8.42-11.8 12.2-18.1 1.31-1.98 2.7-3.4 4.37-5.07 4.54-6.41 8.25-13.2 11.6-20.3 1.33-2.67 2.82-5.17 4.36-7.73 3.64-7.01 6.04-14.1 8.01-21.7 1.02-3.34 2.26-6.23 3.99-9.26 2.84-1.42 4.85-1.31 8-1z" fill="#030303"/>
<path transform="translate(137 83.7)" d="m0 0c3.83 0.0206 3.83 0.0206 6.12 2.31 0.495 0.99 0.495 0.99 1 2-1.08-0.495-1.08-0.495-2.19-1-3.85-1.45-3.85-1.45-7.81-1-2.06 2.44-3.48 5.21-5 8-3.66 6.35-7.61 12.3-12 18.2-2.63 3.66-5.02 7.46-7.38 11.3-1.73 2.64-3.66 5.05-5.64 7.51l-1 2h-2c-0.255 0.723-0.51 1.45-0.773 2.19-1.3 2.98-2.86 5.18-4.85 7.75-7.85 10.6-13.7 22.3-19.4 34.2-0.641 1.3-1.3 2.58-1.97 3.86-2.43 4.67-4.18 9.3-5.66 14.3-0.421 1.39-0.841 2.78-1.26 4.18-0.347 1.16-0.694 2.32-1.05 3.51-0.33 0.99-0.66 1.98-1 3-1.58-0.0877-3.17-0.196-4.75-0.312-0.882-0.058-1.76-0.116-2.67-0.176-2.9-0.576-4.37-1.59-6.58-3.51 2.69-15.5 12.8-30.5 22-43 2.05-3.05 4.07-6.11 6.06-9.19 1.94-2.81 1.94-2.81 3.39-4.26 1.64-1.64 2.94-3.36 4.3-5.24 2.55-3.44 5.26-6.63 8.11-9.82 1.78-2.08 3.49-4.19 5.18-6.34 0.538-0.683 1.08-1.37 1.63-2.07 1.08-1.38 2.16-2.77 3.24-4.16 1.32-1.68 2.7-3.31 4.09-4.93h2c0.66-1.65 1.32-3.3 2-5h2c0.33-1.32 0.66-2.64 1-4h2c0.262-0.732 0.523-1.46 0.793-2.22 2.83-6.52 8.07-11.9 13.2-16.8 1-1 1-1 4.88-1.31z" fill="#030303"/>
<path transform="translate(304,95)" d="m0 0c2.4 2.4 2.28 3.67 2.33 6.95-0.00532 0.697-0.0106 1.39-0.0161 2.11-0.00411 1.1-0.00411 1.1-0.0083 2.22-0.255 14.3-2.36 28.7-5.3 42.7-0.263 1.35-0.524 2.7-0.781 4.05-0.237 1.22-0.474 2.44-0.719 3.7-0.237 1.23-0.474 2.46-0.719 3.73-0.781 3.52-0.781 3.52-1.73 6.31-1.09 3.34-1.89 6.65-2.64 10.1-0.294 1.33-0.588 2.66-0.883 3.99-0.451 2.05-0.9 4.11-1.35 6.17-7.29 33.3-7.29 33.3-14.2 42-1.32-0.66-2.64-1.32-4-2 0.144-10.7 1.36-19.6 5.16-29.7 1.77-4.81 3.35-9.68 4.97-14.5 0.337-0.994 0.673-1.99 1.02-3.01 1.93-5.75 3.67-11.5 5.19-17.4 0.589-2.1 1.28-4.09 2.1-6.11 5.54-14.3 7.45-29.3 8.22-44.5 0.34-2.68 0.978-4.4 2.34-6.71h2c-0.495-4.95-0.495-4.95-1-10z" fill="#030303"/>
<path transform="translate(142,240)" d="m0 0c0.99 0.66 1.98 1.32 3 2 0.111 2.85 0.0474 5.43-0.188 8.25-0.0667 1.13-0.0667 1.13-0.135 2.28-0.316 4.47-1.12 8.24-2.68 12.5-0.997 3.74-1.95 7.49-2.9 11.2-1.1 3.75-2.54 7.17-4.1 10.8-0.848 2.54-1.66 5.07-2.44 7.62-0.213 0.695-0.426 1.39-0.646 2.11-0.434 1.42-0.867 2.83-1.3 4.25-0.565 1.85-1.14 3.69-1.72 5.53-1.96 6.25-3.7 12.5-5.25 18.9-0.497 2.01-1.06 4.01-1.65 6-2.83 10.3-4.44 20.3-5.27 30.9-0.0683 0.818-0.137 1.64-0.207 2.48-0.0542 0.728-0.108 1.46-0.164 2.21-0.406 2.31-1.22 4.03-2.36 6.07-1.34-4.02-0.925-7.76-0.688-11.9 0.0478-0.879 0.0956-1.76 0.145-2.66 0.373-6.41 0.872-12.8 1.48-19.2 0.112-1.22 0.112-1.22 0.226-2.47 0.485-4.78 1.47-9.09 2.84-13.7 0.592-2.95 1.08-5.91 1.56-8.88 1.3-7.99 1.3-7.99 2.44-9.12 0.477-2.14 0.905-4.29 1.31-6.44 1.17-6.01 2.39-12 3.69-18 0.154-0.732 0.308-1.46 0.466-2.22 0.944-4.31 2.21-8.32 3.82-12.4 1.09-2.9 1.86-5.86 2.66-8.85 1.55-5.52 3.13-11.1 6.06-16.1 0.66-0.33 1.32-0.66 2-1z" fill="#030303"/>
<path transform="translate(372,250)" d="m0 0 2 1c-1.56 0.963-3.12 1.92-4.69 2.88-0.87 0.534-1.74 1.07-2.64 1.62-2.51 1.42-5 2.45-7.68 3.51-0.99 0.66-1.98 1.32-3 2-1.78 0.686-3.57 1.37-5.37 2.02-2.69 1.01-5.34 2.09-7.99 3.19-5.92 2.43-11.7 4.57-18 6.06-2.23 0.618-4.3 1.34-6.45 2.16-4.16 1.59-8.37 2.9-12.6 4.14-1.12 0.328-1.12 0.328-2.26 0.662-4.44 1.29-8.87 2.39-13.4 3.31-2.03 0.494-3.89 1.19-5.84 1.96-3.79 1.5-7.56 2.28-11.6 2.97-2.58 0.486-2.58 0.486-5.3 1.55-3.69 1.14-7.23 1.43-11.1 1.61-1.03 0.058-1.03 0.058-2.09 0.117-1.68 0.0933-3.36 0.177-5.04 0.258 0.156-2.3 0.156-2.3 1-5 2.41-1.7 2.41-1.7 5.5-3.12 1-0.477 2-0.954 3.03-1.45 7.96-3.28 15.7-5.15 24.2-6.49 5.96-0.951 11.6-1.92 17.3-3.94 2.31-0.491 4.62-0.947 6.94-1.38 7.08-1.36 14-3.14 21-5.06 2.34-0.632 4.68-1.23 7.02-1.83 1.26-0.324 1.26-0.324 2.55-0.655 1.64-0.419 3.28-0.834 4.92-1.25 4.78-1.23 9.1-2.85 13.6-4.84 0.928-0.124 1.86-0.248 2.81-0.375 4.12-0.808 7.35-2.65 11-4.66 0.717-0.317 1.43-0.634 2.17-0.961z" fill="#030303"/>
<path transform="translate(181,294)" d="m0 0c12.4 3 20.5 12.7 27.9 22.6 1.87 2.21 3.73 3.89 5.94 5.75 3.5 2.98 6.11 6.12 8.77 9.85 1.88 2.55 4.07 4.66 6.36 6.84 3.64 3.54 7.15 7.13 10.4 11 3.53 4.09 7.45 7.51 11.6 11 1.63 1.43 3.25 2.87 4.88 4.31 0.74 0.656 1.48 1.31 2.24 1.99 1.33 1.2 2.62 2.44 3.88 3.7 0.866 0.66 1.73 1.32 2.62 2 0.784 0.66 1.57 1.32 2.38 2v2c-4.55-1.69-8.44-3.74-12.2-6.8-2.01-1.59-4.01-3.08-6.12-4.53-6.42-4.41-11.8-8.46-16.7-14.7-1.32-1.01-2.65-2.02-4-3v-2c-0.722-0.227-1.44-0.454-2.19-0.688-3.32-1.55-5.31-3.72-7.81-6.31-1.34-1.35-2.69-2.69-4.03-4.03-2.98-2.98-5.96-5.96-8.94-8.94-0.699-0.698-1.4-1.4-2.12-2.11-1.16-1.16-2.31-2.32-3.46-3.48-2.04-2.06-4.06-3.93-6.33-5.75-3.84-3.13-6.99-6.87-10.1-10.7-0.559-0.674-1.12-1.35-1.7-2.04-1.79-2.69-1.52-4.8-1.3-7.96z" fill="#030303"/>
<path transform="translate(152,93)" d="m0 0c5.29 0.258 7.77 2.15 11.5 5.62 1.49 1.47 1.49 1.47 3.52 2.38v2c0.743 0.0825 1.49 0.165 2.25 0.25 3.41 0.931 4.35 2.15 6.75 4.75 3.44 3.12 6.93 6.18 10.6 9 2.02 1.7 3.52 3.29 5.19 5.31 2.83 3.4 5.96 6.21 9.32 9.07 2.42 2.09 4.64 4.33 6.87 6.61 3.91 3.99 7.83 7.91 12.1 11.6 7.68 6.67 15.9 14 17.9 24.4-5.78-0.397-8.65-1.78-13-5.56-0.776-0.671-0.776-0.671-1.57-1.36-3.65-3.22-6.89-6.66-9.98-10.4-1.52-1.86-1.52-1.86-4.07-3.73-2.66-2.17-4.27-4.47-6.2-7.28-1.52-2.13-3.31-3.84-5.18-5.66-0.988-1.14-1.97-2.29-2.94-3.44-1.82-2.14-3.63-4.13-5.62-6.12-2.67-2.67-5.02-5.53-7.44-8.44-3.94-4.05-8.05-7.9-12.2-11.8-0.656-0.613-1.31-1.23-1.99-1.86-4.66-4.34-9.38-8.61-14.2-12.8-0.548-0.519-1.1-1.04-1.66-1.57v-1z" fill="#030303"/>
<path transform="translate(165 178)" d="m0 0c0.74 0.00645 1.48 0.0129 2.24 0.0195 1.88 0.168 1.88 0.168 3.88 1.17 0 2.25 0 2.25-1 5-10.2 6.44-23.1 8-34.8 10.5-2.02 0.438-4.03 0.883-6.05 1.33-5.47 1.2-10.9 2.3-16.5 3.15-4.22 0.675-8 1.7-12 3.15-4.39 1.4-8.89 2.34-13.4 3.32-4.96 1.11-9.58 2.65-14.3 4.53-1.96 0.755-3.91 1.51-5.88 2.25-1.39 0.534-1.39 0.534-2.8 1.08-2.32 0.672-2.32 0.672-4.32-0.328 2.36-2.36 3.78-2.49 7-3v-2h2v-2c0.915-0.266 1.83-0.531 2.77-0.805 1.78-0.53 1.78-0.53 3.6-1.07 1.18-0.348 2.37-0.696 3.59-1.05 3.1-0.847 3.1-0.847 5.04-3.07 2.17-0.711 4.36-1.35 6.56-1.94 4.82-1.33 9.57-2.73 14.3-4.35 3.11-1.04 6.25-1.95 9.39-2.87 2.27-0.696 4.5-1.44 6.75-2.21 5.95-1.99 12-3.58 18.1-5.19 1.13-0.304 2.26-0.607 3.43-0.92 3.17-0.847 6.34-1.68 9.51-2.52 1.2-0.323 1.2-0.323 2.42-0.653 3.54-0.932 6.79-1.61 10.5-1.53z" fill="#030303"/>
<path transform="translate(851 97.9)" d="m0 0c1.17-0.00387 1.17-0.00387 2.37-0.00781 2.79 0.169 4.67 0.678 6.8 2.52 4.47 5.25 5.33 9.69 4.97 16.5-0.727 3.89-1.8 6.17-4.67 8.9-4.69 2.89-9.35 2.44-14.6 1.55-3.97-1.65-6.24-3.37-9.31-6.38-1.52-4.56-1.43-8.97-0.438-13.6 3.35-5.53 8.36-9.52 14.9-9.5z" fill="#030303"/>
<path transform="translate(304,95)" d="m0 0c2 2 2 2 2.2 5.91-0.0133 1.57-0.0372 3.14-0.0703 4.71-0.00902 0.802-0.018 1.6-0.0273 2.43-0.0236 1.98-0.0595 3.96-0.0977 5.95-0.99-0.33-1.98-0.66-3-1-0.8-3.29-1.1-4.71 0-8h2c-0.33-3.3-0.66-6.6-1-10z" fill="#3C3C3C"/>
</svg>
